HIERARCHY
ROOT Hips
{
	OFFSET 0.00000 0.00000 0.00000
	CHANNELS 6 Xposition Yposition Zposition Zrotation Yrotation Xrotation 
	JOINT LHipJoint
	{
		OFFSET 0 0 0
		CHANNELS 3 Zrotation Yrotation Xrotation
		JOINT LeftUpLeg
		{
			OFFSET 1.64577 -1.42384 0.94276
			CHANNELS 3 Zrotation Yrotation Xrotation
			JOINT LeftLeg
			{
				OFFSET 2.11538 -5.81197 0.00000
				CHANNELS 3 Zrotation Yrotation Xrotation
				JOINT LeftFoot
				{
					OFFSET 2.36541 -6.49893 0.00000
					CHANNELS 3 Zrotation Yrotation Xrotation
					JOINT LeftToeBase
					{
						OFFSET 0.17759 -0.48793 1.73865
						CHANNELS 3 Zrotation Yrotation Xrotation
						End Site
						{
							OFFSET 0.00000 -0.00000 0.91205
						}
					}
				}
			}
		}
	}
	JOINT RHipJoint
	{
		OFFSET 0 0 0
		CHANNELS 3 Zrotation Yrotation Xrotation
		JOINT RightUpLeg
		{
			OFFSET -1.43750 -1.42384 0.94276
			CHANNELS 3 Zrotation Yrotation Xrotation
			JOINT RightLeg
			{
				OFFSET -2.10480 -5.78291 0.00000
				CHANNELS 3 Zrotation Yrotation Xrotation
				JOINT RightFoot
				{
					OFFSET -2.34880 -6.45329 0.00000
					CHANNELS 3 Zrotation Yrotation Xrotation
					JOINT RightToeBase
					{
						OFFSET -0.22842 -0.62757 1.80469
						CHANNELS 3 Zrotation Yrotation Xrotation
						End Site
						{
							OFFSET -0.00000 -0.00000 0.95886
						}
					}
				}
			}
		}
	}
	JOINT LowerBack
	{
		OFFSET 0 0 0
		CHANNELS 3 Zrotation Yrotation Xrotation
		JOINT Spine
		{
			OFFSET 0.06217 1.93758 -0.49272
			CHANNELS 3 Zrotation Yrotation Xrotation
			JOINT Spine1
			{
				OFFSET -0.03114 2.03621 -0.05830
				CHANNELS 3 Zrotation Yrotation Xrotation
				JOINT Neck
				{
					OFFSET 0 0 0
					CHANNELS 3 Zrotation Yrotation Xrotation
					JOINT Neck1
					{
						OFFSET 0.04421 1.41010 0.26562
						CHANNELS 3 Zrotation Yrotation Xrotation
						JOINT Head
						{
							OFFSET -0.13407 1.43847 0.06181
							CHANNELS 3 Zrotation Yrotation Xrotation
							End Site
							{
								OFFSET -0.04980 1.45844 -0.00689
							}
						}
					}
				}
				JOINT LeftShoulder
				{
					OFFSET 0 0 0
					CHANNELS 3 Zrotation Yrotation Xrotation
					JOINT LeftArm
					{
						OFFSET 2.18382 1.47753 -0.35694
						CHANNELS 3 Zrotation Yrotation Xrotation
						JOINT LeftForeArm
						{
							OFFSET 5.05460 -0.00000 0.00000
							CHANNELS 3 Zrotation Yrotation Xrotation
							JOINT LeftHand
							{
								OFFSET 3.39013 -0.00000 0.00000
								CHANNELS 3 Zrotation Yrotation Xrotation
								JOINT LeftFingerBase
								{
									OFFSET 0 0 0
									CHANNELS 3 Zrotation Yrotation Xrotation
									JOINT LeftHandIndex1
									{
										OFFSET 0.57242 -0.00000 -0.00000
										CHANNELS 3 Zrotation Yrotation Xrotation
										End Site
										{
											OFFSET 0.46150 -0.00000 -0.00000
										}
									}
								}
								JOINT LThumb
								{
									OFFSET 0 0 0
									CHANNELS 3 Zrotation Yrotation Xrotation
									End Site
									{
										OFFSET 0.46855 -0.00000 0.46855
									}
								}
							}
						}
					}
				}
				JOINT RightShoulder
				{
					OFFSET 0 0 0
					CHANNELS 3 Zrotation Yrotation Xrotation
					JOINT RightArm
					{
						OFFSET -2.06033 1.72839 -0.47437
						CHANNELS 3 Zrotation Yrotation Xrotation
						JOINT RightForeArm
						{
							OFFSET -5.07010 -0.00000 0.00000
							CHANNELS 3 Zrotation Yrotation Xrotation
							JOINT RightHand
							{
								OFFSET -3.14957 -0.00000 -0.00000
								CHANNELS 3 Zrotation Yrotation Xrotation
								JOINT RightFingerBase
								{
									OFFSET 0 0 0
									CHANNELS 3 Zrotation Yrotation Xrotation
									JOINT RightHandIndex1
									{
										OFFSET -0.71819 -0.00000 -0.00000
										CHANNELS 3 Zrotation Yrotation Xrotation
										End Site
										{
											OFFSET -0.57902 -0.00000 -0.00000
										}
									}
								}
								JOINT RThumb
								{
									OFFSET 0 0 0
									CHANNELS 3 Zrotation Yrotation Xrotation
									End Site
									{
										OFFSET -0.58786 -0.00000 0.58786
									}
								}
							}
						}
					}
				}
			}
		}
	}
}
MOTION
Frames: 14
Frame Time: .0083333
41.4019 15.6867 4.2218 -164.5250 1.2209 184.5640 0.0000 0.0000 0.0000 -12.3112 -20.1748 -19.0944 5.0184 13.4045 40.9020 0.0138 -7.9947 -5.8865 2.6983 10.1899 29.5938 0.0000 0.0000 0.0000 21.7518 20.1980 -11.3250 -1.9708 -8.8049 25.1870 2.5601 -26.9868 -12.4439 -0.4889 4.4835 -12.4412 1.8383 0.5415 19.7183 -1.9354 2.5326 8.0620 -3.6557 1.9704 -2.1658 2.7910 2.7198 -10.3389 0.6530 2.9610 -2.6151 -0.1522 1.3240 0.9413 -0.0000 0.0000 0.0000 -78.3529 11.8485 13.2492 41.9173 -49.1657 -19.8780 -0.0000 0.0000 -9.4049 33.7075 14.9333 9.7543 -7.1250 0.0000 -0.0000 5.9440 47.6667 0.3924 -0.0000 0.0000 0.0000 72.7915 -16.3733 57.6431 -44.7701 50.6554 -22.0608 0.0000 -0.0000 -38.9290 -37.3439 3.2618 -2.4859 7.1250 -0.0000 -0.0000 -8.1072 -25.8678 -3.7936
41.7283 15.3215 4.2306 -164.2770 0.5413 184.2470 0.0000 0.0000 0.0000 -11.8403 -19.2074 -20.6023 5.8056 14.2372 44.1963 0.5726 -8.6110 -13.8871 1.3038 7.2336 20.4093 0.0000 0.0000 0.0000 21.8623 18.4606 -12.7955 -2.3496 -9.5592 27.5606 2.0447 -24.7134 -14.4253 -2.7620 10.2994 -29.9518 0.9571 0.4419 20.8994 -1.5548 2.2634 7.8893 -2.7538 1.8034 -3.0194 3.7926 3.0033 -10.1443 0.0682 3.2542 -2.4426 -0.4913 1.4615 0.9986 0.0000 0.0000 0.0000 -78.6060 10.6739 12.9951 37.4544 -46.4873 -16.5688 -0.0000 0.0000 -6.7662 36.0900 15.4267 10.9737 -7.1250 0.0000 -0.0000 8.3081 48.6555 0.7539 0.0000 0.0000 0.0000 72.6995 -15.9203 58.4598 -43.9612 50.2493 -21.4370 0.0000 -0.0000 -39.1541 -36.8043 2.8857 -2.1572 7.1250 -0.0000 -0.0000 -7.7459 -26.3626 -3.5310
42.0263 14.9390 4.2244 -164.8130 -0.1169 183.7940 0.0000 0.0000 0.0000 -12.0107 -19.4810 -22.4934 6.9393 15.2806 48.6445 1.3031 -9.5240 -20.5104 1.9220 8.7016 24.8663 0.0000 0.0000 0.0000 21.6193 14.7528 -13.9375 -2.8465 -10.4424 30.4215 0.5843 -16.2668 -15.9071 -4.9605 13.3392 -40.6519 -0.1107 0.3927 21.6674 -1.5912 2.0464 7.9524 -2.1674 1.7051 -3.3773 4.1350 2.8216 -10.2422 0.3036 2.9654 -2.1057 -0.4849 1.3271 1.1208 -0.0000 -0.0000 0.0000 -78.1284 9.5174 13.7610 33.5717 -43.7649 -13.8159 -0.0000 0.0000 -4.8783 37.0409 13.0766 9.6897 -7.1250 0.0000 -0.0000 9.2032 45.9984 0.2287 -0.0000 -0.0000 0.0000 73.1960 -15.6835 58.4926 -42.7971 49.6425 -20.5460 0.0000 -0.0000 -38.6252 -36.2231 3.0238 -2.2128 7.1250 -0.0000 -0.0000 -7.2937 -26.2213 -3.3460
42.3044 14.6677 4.2157 -167.6090 -0.6477 183.3660 0.0000 0.0000 0.0000 -14.5717 -21.0108 -23.2807 8.0707 16.1710 52.8168 2.0330 -9.4194 -25.5942 1.9143 8.6851 24.8153 0.0000 0.0000 0.0000 18.8626 13.1381 -16.1222 -3.5977 -11.6049 34.3483 -0.0911 -12.8450 -19.3584 -6.5154 14.9099 -47.0168 -2.3037 2.9317 22.5895 -2.0554 1.4517 8.1362 -1.2135 -0.0203 -3.7254 4.9201 2.5536 -10.1085 0.1825 2.5148 -2.3220 -0.6765 1.0835 1.0355 -0.0000 -0.0000 0.0000 -77.1321 7.6674 15.5971 29.7432 -40.6722 -11.2419 -0.0000 0.0000 -3.7607 37.5448 12.6690 9.5679 -7.1250 0.0000 -0.0000 9.6730 45.5830 0.1405 -0.0000 -0.0000 0.0000 74.0488 -16.2815 57.7445 -41.8714 49.1404 -19.8432 0.0000 -0.0000 -38.1280 -36.0498 3.6019 -2.6182 7.1250 -0.0000 -0.0000 -7.1020 -25.5218 -3.3736
42.5593 14.3841 4.2050 -165.3970 -1.3116 183.9930 0.0000 0.0000 0.0000 -10.1908 -22.7175 -27.2229 9.5143 17.1275 57.8524 2.0639 -9.7435 -25.7977 1.6267 8.0410 22.8386 0.0000 0.0000 0.0000 21.6204 12.7719 -19.3325 -4.4827 -12.7764 38.5371 -0.7851 -10.1355 -23.3132 -5.7833 14.2150 -44.1058 -0.2548 2.6288 22.6653 -1.5974 1.6005 7.9829 -1.9282 0.1043 -3.8677 4.4491 2.3567 -10.1014 1.4628 2.2452 -2.6861 -0.2079 0.9440 0.8823 -0.0000 -0.0000 0.0000 -76.6175 5.4432 16.7677 26.4330 -37.6331 -9.1507 -0.0000 0.0000 -3.0050 41.0632 14.0390 11.9335 -7.1250 0.0000 -0.0000 13.2645 47.8748 0.9567 -0.0000 -0.0000 0.0000 75.0951 -16.0466 57.2340 -40.0118 48.0769 -18.4480 0.0000 -0.0000 -37.9074 -36.5932 3.6758 -2.7253 7.1250 -0.0000 -0.0000 -7.4991 -25.3992 -3.5869
42.7699 14.1971 4.1993 -165.5240 -1.0720 184.6360 0.0000 0.0000 0.0000 -8.6392 -23.5429 -30.3801 10.7212 17.7959 61.8728 2.0887 -9.1127 -25.9472 1.0459 6.5035 18.2526 0.0000 0.0000 0.0000 22.1257 11.7300 -23.0252 -5.4494 -13.8727 42.7299 -0.9335 -10.0263 -24.4704 -6.4059 14.8105 -46.5898 -0.6997 2.8830 22.4944 -1.6808 1.8030 8.1081 -1.8095 0.1879 -3.6551 4.0456 2.2565 -9.8078 2.2612 2.1233 -3.6561 0.0959 0.8425 0.5057 -0.0000 -0.0000 0.0000 -77.0473 2.8715 16.3697 23.7303 -34.8778 -7.5518 -0.0000 0.0000 -1.6551 40.3702 15.1400 12.5192 -7.1250 0.0000 -0.0000 12.6686 49.1097 1.3029 -0.0000 -0.0000 0.0000 75.8788 -15.3194 56.9336 -37.9070 46.7798 -16.8978 0.0000 -0.0000 -37.6799 -36.1585 2.8522 -2.0825 7.1250 -0.0000 -0.0000 -7.2631 -26.4352 -3.2951
42.9743 14.1161 4.1985 -166.6150 -0.8298 183.9970 0.0000 0.0000 0.0000 -9.0642 -23.8301 -30.9619 11.6182 18.2245 64.7733 2.1501 -8.8047 -26.3369 0.7388 5.4911 15.3147 0.0000 0.0000 0.0000 21.8700 12.9386 -24.1888 -6.2887 -14.7024 46.1297 -1.1382 -9.9067 -25.9895 -5.2426 13.6519 -41.8604 -1.7155 3.2900 23.8274 -2.1470 1.7961 8.6419 -1.7577 0.0734 -3.7624 4.1341 2.3541 -10.0711 2.3934 2.1890 -4.1532 0.1247 0.8405 0.3922 -0.0000 -0.0000 0.0000 -77.3011 0.8392 16.3131 22.1453 -33.1408 -6.6651 -0.0000 0.0000 -1.4057 39.6551 15.8248 12.7369 -7.1250 0.0000 -0.0000 11.9817 49.8098 1.4391 -0.0000 -0.0000 0.0000 76.8195 -14.6746 56.4399 -36.5323 45.8758 -15.9034 0.0000 -0.0000 -37.8185 -35.9305 1.2424 -0.9002 7.1250 -0.0000 -0.0000 -7.2519 -28.4168 -2.9487
43.1610 14.0571 4.2021 -165.5000 -0.5265 184.4540 0.0000 0.0000 0.0000 -6.5142 -23.6719 -32.6845 12.1957 18.4722 66.6078 2.1777 -8.8134 -26.5103 0.6047 4.9775 13.8444 0.0000 0.0000 0.0000 24.0454 14.3001 -26.0576 -6.9318 -15.2742 48.6159 -1.1257 -10.8027 -26.6289 -4.2593 12.4977 -37.5161 -2.1803 0.7580 24.0679 -2.2291 2.4039 8.6870 -1.8538 2.0175 -3.7822 4.3099 2.7211 -10.0339 2.0949 2.6257 -4.9799 0.0153 1.0050 0.1359 0.0000 -0.0000 0.0000 -78.0406 0.1679 16.2785 21.9048 -32.8693 -6.5341 -0.0000 0.0000 -1.5372 38.4315 16.7879 12.9083 -7.1250 0.0000 -0.0000 10.7491 50.7325 1.5336 0.0000 -0.0000 0.0000 76.6857 -14.1193 57.1307 -36.0831 45.5702 -15.5818 0.0000 -0.0000 -39.8580 -35.0676 0.2643 -0.1855 7.1250 -0.0000 -0.0000 -6.6703 -29.6252 -2.5164
43.3634 14.0648 4.2387 -164.4420 -1.1903 184.9430 0.0000 0.0000 0.0000 -3.9041 -24.1519 -34.0803 12.3743 18.5444 67.1703 2.1601 -8.3168 -26.4096 0.3599 3.8541 10.6665 0.0000 0.0000 0.0000 26.4231 14.8074 -27.4336 -7.1901 -15.4899 49.5895 -1.0572 -12.5958 -27.6876 -3.6032 11.6128 -34.3757 -0.7173 2.8515 25.0278 -1.5689 1.4018 8.7226 -1.6194 -0.1379 -4.2527 4.2867 2.9469 -10.1287 2.3888 2.8992 -5.1128 0.1180 1.1270 0.1067 -0.0000 -0.0000 0.0000 -78.5581 0.3099 17.6420 22.4927 -33.5294 -6.8560 -0.0000 0.0000 -3.8881 37.8706 16.5230 12.4711 -7.1250 0.0000 -0.0000 10.1510 50.3010 1.3383 -0.0000 -0.0000 0.0000 76.5933 -14.2171 57.7095 -36.4601 45.8270 -15.8516 0.0000 -0.0000 -42.0769 -36.4770 0.6494 -0.4801 7.1250 -0.0000 -0.0000 -7.7326 -29.1334 -3.0147
43.5183 14.1494 4.2390 -164.7950 -1.8789 184.8980 0.0000 0.0000 0.0000 -3.8709 -25.2675 -33.4414 12.2744 18.5042 66.8558 2.2211 -6.9710 -26.8644 0.2058 2.9208 8.0583 0.0000 0.0000 0.0000 27.2009 14.1554 -27.1762 -7.0321 -15.3588 48.9955 -1.1663 -13.3815 -29.1661 -3.1122 10.8745 -31.8579 -0.5547 2.6594 25.8950 -1.8437 0.9968 9.1414 -1.9074 -0.3923 -4.2119 4.4629 3.0279 -10.3877 2.4301 2.9322 -5.5082 0.1044 1.1073 0.0272 -0.0000 -0.0000 0.0000 -78.9087 0.6119 18.8500 24.0184 -35.1837 -7.7172 -0.0000 0.0000 -4.9923 37.3820 16.3186 12.1166 -7.1250 0.0000 -0.0000 9.6374 49.9602 1.1882 -0.0000 -0.0000 0.0000 76.9406 -14.8319 57.1783 -37.7260 46.6634 -16.7660 0.0000 -0.0000 -42.2043 -36.3310 -0.0686 0.0505 7.1250 -0.0000 -0.0000 -7.6887 -30.0193 -2.8336
43.6488 14.2714 4.2411 -165.6210 -2.5303 185.0930 0.0000 0.0000 0.0000 -4.4829 -26.7362 -32.6690 12.0084 18.3942 66.0153 2.1569 -5.6431 -26.5842 0.2613 3.2887 9.0835 0.0000 0.0000 0.0000 26.6493 14.5313 -25.9572 -6.5981 -14.9839 47.3375 -1.1455 -13.3030 -28.9523 -3.4581 11.4021 -33.6482 -0.7556 2.5259 26.5546 -2.0835 0.5856 9.5872 -1.9415 -0.6534 -4.0503 4.3810 3.1857 -10.4197 2.3822 3.0962 -6.5089 0.1041 1.1242 -0.2790 -0.0000 0.0000 0.0000 -78.6236 1.0851 22.0392 25.9255 -37.1350 -8.8426 -0.0000 0.0000 -6.9477 36.5725 16.3878 11.8227 -7.1250 0.0000 -0.0000 8.8009 49.8872 1.0677 -0.0000 0.0000 0.0000 76.6409 -15.9387 56.6429 -40.0096 48.0756 -18.4463 0.0000 -0.0000 -41.6941 -37.1230 -0.0036 0.0028 7.1250 -0.0000 -0.0000 -8.3023 -29.9317 -3.0814
43.7583 14.3911 4.2748 -166.1600 -3.7755 186.0470 0.0000 0.0000 0.0000 -4.3772 -28.8667 -33.7000 11.8593 18.3305 65.5420 1.9116 -2.4445 -25.5009 0.0957 1.9954 5.4928 0.0000 0.0000 0.0000 26.1954 14.4003 -25.6065 -5.9943 -14.4228 44.9588 -0.9344 -14.0789 -28.2005 -4.0881 12.2767 -36.7180 -0.4494 2.1521 27.1469 -2.0608 0.1183 9.7770 -1.9595 -0.8940 -4.1308 4.1710 3.2249 -10.5248 2.1699 3.1009 -7.6007 0.0699 1.0601 -0.5996 -0.0000 -0.0000 0.0000 -79.0569 1.8732 24.2398 28.8020 -39.8442 -10.6337 -0.0000 0.0000 -8.1303 36.5807 16.9294 12.1945 -7.1250 0.0000 -0.0000 8.8086 50.5319 1.2090 -0.0000 -0.0000 0.0000 76.2318 -17.2236 55.6089 -42.7804 49.6336 -20.5333 0.0000 -0.0000 -41.2253 -37.2678 0.0219 -0.0167 7.1250 -0.0000 -0.0000 -8.4128 -29.8984 -3.1300
43.8535 14.5346 4.2932 -167.1730 -4.7988 186.9340 0.0000 0.0000 0.0000 -5.1613 -30.7535 -34.2556 11.6520 18.2396 64.8813 1.6590 0.3230 -24.4899 0.1091 2.1295 5.8638 0.0000 0.0000 0.0000 25.2969 13.4966 -25.3458 -5.3861 -13.8058 42.4651 -0.8180 -14.0679 -27.3392 -4.4114 12.6886 -38.2136 -0.4928 2.0051 27.4730 -2.0402 -0.1794 10.1396 -1.8264 -1.0737 -3.8923 3.8034 3.1622 -10.7139 1.8864 2.9727 -8.6304 0.0372 0.9395 -0.8903 0.0000 0.0000 0.0000 -79.4077 2.4895 26.2514 31.9274 -42.4892 -12.6918 -0.0000 0.0000 -8.4749 35.4472 17.9020 12.3436 -7.1250 0.0000 -0.0000 7.5994 51.4536 1.2139 0.0000 0.0000 0.0000 75.6863 -18.5972 54.4455 -45.9029 51.2032 -22.9403 0.0000 -0.0000 -41.3580 -37.3760 0.4989 -0.3811 7.1250 -0.0000 -0.0000 -8.4459 -29.3036 -3.2635
43.9455 14.6894 4.3243 -166.2790 -5.6131 188.2080 0.0000 0.0000 0.0000 -3.2647 -31.6092 -36.1378 11.5199 18.1802 64.4587 1.5345 1.5189 -24.0020 0.2130 2.9712 8.1986 0.0000 0.0000 0.0000 26.4753 13.1003 -25.7210 -4.8003 -13.1553 39.9526 -0.7137 -13.9468 -26.4215 -4.4879 12.7828 -38.5606 0.8066 1.7363 27.5274 -1.3848 -0.1259 10.2150 -1.8726 -1.0238 -3.8121 3.4826 3.1926 -10.8821 1.3400 2.9649 -9.4455 -0.0801 0.8975 -1.1142 0.0000 0.0000 0.0000 -80.0030 3.2899 27.9853 35.4134 -45.1050 -15.1054 -0.0000 0.0000 -9.4222 32.6728 17.3175 10.8077 -7.1250 0.0000 -0.0000 4.7606 50.2451 0.6167 0.0000 0.0000 0.0000 74.6505 -20.0327 53.7021 -49.2832 52.7023 -25.6028 0.0000 -0.0000 -41.9465 -37.4569 1.1204 -0.8582 7.1250 -0.0000 -0.0000 -8.4397 -28.5280 -3.4182
